<svg width="951" height="219" viewBox="0 0 951 219" fill="none" xmlns="http://www.w3.org/2000/svg">
<rect x="0.5" y="2.5" width="111" height="47" rx="11.5" fill="white"/>
<rect x="0.5" y="2.5" width="111" height="47" rx="11.5" stroke="#E6E7EB"/>
<path d="M24.6667 32V30.6667C24.6667 29.9594 24.3858 29.2811 23.8857 28.781C23.3856 28.281 22.7073 28 22 28H18C17.2928 28 16.6145 28.281 16.1144 28.781C15.6143 29.2811 15.3334 29.9594 15.3334 30.6667V32" stroke="#1D2333" stroke-width="1.33333" stroke-linecap="round" stroke-linejoin="round"/>
<path d="M20 25.3333C21.4728 25.3333 22.6667 24.1394 22.6667 22.6667C22.6667 21.1939 21.4728 20 20 20C18.5273 20 17.3334 21.1939 17.3334 22.6667C17.3334 24.1394 18.5273 25.3333 20 25.3333Z" stroke="#1D2333" stroke-width="1.33333" stroke-linecap="round" stroke-linejoin="round"/>
<path d="M39.616 24.688V27.136H43.296V24.688H39.616ZM39.536 28.544C39.344 30.56 38.752 32.224 37.76 33.536L36.592 32.496C37.552 31.12 38.048 29.376 38.08 27.264V19.424H50.352V31.472C50.352 32.672 49.728 33.28 48.512 33.28H46.672L46.272 31.792C46.896 31.84 47.472 31.872 48.016 31.872C48.528 31.872 48.8 31.552 48.8 30.928V28.544H44.832V33.104H43.296V28.544H39.536ZM48.8 27.136V24.688H44.832V27.136H48.8ZM48.8 23.296V20.896H44.832V23.296H48.8ZM43.296 20.896H39.616V23.296H43.296V20.896ZM64.544 22.208H55.824V24.928H64.544V22.208ZM55.808 26.416C55.712 29.232 54.976 31.68 53.584 33.728L52.464 32.704C53.68 30.96 54.304 28.704 54.32 25.952V20.72H59.456C59.2 20.112 58.912 19.536 58.592 19.008L60.224 18.752C60.496 19.344 60.752 20 61.008 20.72H66.08V26.416H55.808ZM68.864 26.4H83.136V27.696H76.464L76.032 28.592H82.16V32.128C82.16 33.12 81.632 33.632 80.608 33.632H79.472L79.136 32.336L80.192 32.4C80.528 32.4 80.704 32.192 80.704 31.808V29.872H78.528V33.472H77.072V29.872H75.088V33.472H73.648V29.872H71.632V33.696H70.192V28.592H74.512L74.928 27.696H68.864V26.4ZM69.84 19.344H82.176V20.576H76.736V21.312H82.848V24.768H81.392V22.48H76.736V25.872H75.264V22.48H70.608V24.768H69.152V21.312H75.264V20.576H69.84V19.344ZM71.248 23.168H74.608V24.128H71.248V23.168ZM71.248 24.736H74.608V25.712H71.248V24.736ZM77.376 23.168H80.72V24.128H77.376V23.168ZM77.392 24.736H80.768V25.712H77.392V24.736ZM85.104 21.696H91.344V18.864H92.88V21.696H95.92C95.408 21.12 94.736 20.512 93.936 19.872L94.912 18.944C95.808 19.6 96.576 20.256 97.184 20.912L96.4 21.696H98.864V23.152H92.88V24.032C93.28 24.896 93.76 25.696 94.304 26.464C95.376 25.632 96.288 24.704 97.056 23.648L98.192 24.64C97.328 25.728 96.304 26.672 95.12 27.488C96.304 28.896 97.744 30.128 99.456 31.184L98.384 32.448C96.016 30.768 94.176 28.752 92.88 26.4V31.936C92.88 33.008 92.352 33.552 91.312 33.552H89.12L88.784 32.096C89.488 32.16 90.144 32.192 90.784 32.192C91.152 32.192 91.344 31.968 91.344 31.552V27.776C89.728 29.696 87.856 31.296 85.744 32.592L84.912 31.216C87.328 29.92 89.472 28.176 91.344 26V23.152H85.104V21.696ZM86.88 24C87.92 24.944 88.8 25.888 89.536 26.832L88.496 27.856C87.856 26.976 86.976 26.032 85.824 25.008L86.88 24Z" fill="#1D2333"/>
<rect x="106.5" y="20.5" width="11" height="11" rx="5.5" fill="white"/>
<rect x="106.5" y="20.5" width="11" height="11" rx="5.5" stroke="#E6E7EB"/>
<path d="M118 25.5C117.724 25.5 117.5 25.7239 117.5 26C117.5 26.2761 117.724 26.5 118 26.5V26V25.5ZM182 26L177 23.1132V28.8868L182 26ZM118 26V26.5H177.5V26V25.5H118V26Z" fill="#E6E7EB"/>
<rect x="182.5" y="2.5" width="161" height="47" rx="11.5" fill="white"/>
<rect x="182.5" y="2.5" width="161" height="47" rx="11.5" stroke="#E6E7EB"/>
<path d="M204 19.3333H200C199.632 19.3333 199.333 19.6318 199.333 20V21.3333C199.333 21.7015 199.632 22 200 22H204C204.368 22 204.667 21.7015 204.667 21.3333V20C204.667 19.6318 204.368 19.3333 204 19.3333Z" stroke="#1D2333" stroke-width="1.33333" stroke-linecap="round" stroke-linejoin="round"/>
<path d="M204.667 20.6667H206C206.354 20.6667 206.693 20.8071 206.943 21.0572C207.193 21.3072 207.333 21.6464 207.333 22V31.3333C207.333 31.687 207.193 32.0261 206.943 32.2761C206.693 32.5262 206.354 32.6667 206 32.6667H198C197.646 32.6667 197.307 32.5262 197.057 32.2761C196.807 32.0261 196.667 31.687 196.667 31.3333V22C196.667 21.6464 196.807 21.3072 197.057 21.0572C197.307 20.8071 197.646 20.6667 198 20.6667H199.333" stroke="#1D2333" stroke-width="1.33333" stroke-linecap="round" stroke-linejoin="round"/>
<path d="M202 25.3333H204.667" stroke="#1D2333" stroke-width="1.33333" stroke-linecap="round" stroke-linejoin="round"/>
<path d="M202 28.6667H204.667" stroke="#1D2333" stroke-width="1.33333" stroke-linecap="round" stroke-linejoin="round"/>
<path d="M199.333 25.3333H199.34" stroke="#1D2333" stroke-width="1.33333" stroke-linecap="round" stroke-linejoin="round"/>
<path d="M199.333 28.6667H199.34" stroke="#1D2333" stroke-width="1.33333" stroke-linecap="round" stroke-linejoin="round"/>
<path d="M219.076 22.96H225.204C225.3 22.112 225.364 21.216 225.38 20.288V18.896H226.916V19.936C226.916 20.992 226.852 22 226.724 22.96H233.22V24.432H227.108C228.228 27.856 230.388 30.496 233.556 32.368L232.612 33.6C229.54 31.712 227.38 29.072 226.164 25.68C225.108 29.344 222.948 32.032 219.7 33.744L218.724 32.464C222.02 30.864 224.1 28.176 224.948 24.432H219.076V22.96ZM243.204 22.512C243.78 23.36 244.308 24.176 244.804 24.976C245.156 23.952 245.428 22.848 245.652 21.68L246.964 21.904C246.66 23.584 246.244 25.104 245.716 26.464C246.436 27.68 247.044 28.8 247.54 29.84L246.356 30.656C245.956 29.808 245.508 28.928 245.012 28.032C244.452 29.12 243.796 30.096 243.06 30.928L242.132 29.776C242.932 28.848 243.62 27.776 244.18 26.56C243.54 25.472 242.852 24.352 242.1 23.2L243.204 22.512ZM247.348 33.52H246.068L245.684 32.064L246.868 32.144C247.332 32.144 247.572 31.872 247.572 31.36V20.848H242.068V33.664H240.644V19.44H248.996V31.68C248.996 32.896 248.436 33.52 247.348 33.52ZM240.068 30.208V31.632C238.596 32.224 236.916 32.704 235.044 33.072L234.852 31.616C236.836 31.264 238.564 30.8 240.068 30.208ZM237.3 18.928L238.724 19.472C238.02 21.392 237.3 22.944 236.58 24.128C237.092 24.064 237.62 24 238.132 23.92C238.404 23.344 238.692 22.736 239.012 22.08L240.388 22.592C239.092 25.184 238.004 27.056 237.14 28.224C238.068 28 238.996 27.712 239.956 27.36V28.656C238.34 29.296 236.804 29.712 235.364 29.92L234.948 28.576C235.22 28.48 235.444 28.336 235.636 28.144C236.116 27.6 236.724 26.624 237.46 25.248C236.74 25.376 235.988 25.488 235.22 25.6L234.836 24.24C235.076 24.144 235.284 23.952 235.476 23.68C236.18 22.256 236.788 20.672 237.3 18.928ZM251.236 21.04H253.412V18.976H254.932V21.04H256.9V22.496H254.932V24.784H257.124V26.24H254.868C254.836 26.592 254.788 26.928 254.756 27.248C255.62 28.048 256.5 28.928 257.396 29.92L256.532 31.216C255.732 30.112 255.06 29.264 254.516 28.656C254.036 30.8 253.188 32.48 251.972 33.696L250.836 32.704C252.276 31.264 253.108 29.12 253.348 26.24H251.012V24.784H253.412V22.496H251.236V21.04ZM264.452 19.456V28.4H262.996V20.848H259.076V28.4H257.62V19.456H264.452ZM263.876 33.408H262.468C261.556 33.408 261.108 32.912 261.108 31.952V29.024C260.916 29.616 260.676 30.144 260.404 30.608C259.604 31.936 258.292 32.96 256.5 33.696L255.716 32.432C257.476 31.696 258.676 30.752 259.316 29.616C259.94 28.4 260.276 26.832 260.34 24.896V21.952H261.732V24.896C261.7 26.208 261.54 27.392 261.284 28.416H262.5V31.648C262.5 31.92 262.628 32.064 262.9 32.064H263.636C263.828 32.064 263.956 31.984 264.052 31.824C264.148 31.632 264.228 31.088 264.276 30.16L265.572 30.576C265.476 31.952 265.284 32.768 265.028 33.04C264.772 33.28 264.388 33.408 263.876 33.408ZM276.26 20.272H277.732V30.16H276.26V20.272ZM279.3 33.504H276.996L276.644 32.048C277.396 32.112 278.1 32.144 278.772 32.144C279.22 32.144 279.46 31.92 279.46 31.488V18.928H280.964V31.872C280.964 32.96 280.404 33.504 279.3 33.504ZM274.852 22.32L275.092 23.792L270.58 24.48C270.644 25.2 270.74 25.856 270.868 26.448C270.996 27.056 271.124 27.616 271.284 28.112C272.116 27.12 272.836 25.968 273.428 24.656L274.756 25.344C273.956 27.104 272.996 28.592 271.86 29.792C271.972 30.064 272.084 30.304 272.212 30.528C272.756 31.456 273.268 31.92 273.716 31.936C273.972 31.888 274.228 31.12 274.5 29.632L275.78 30.464C275.54 31.28 275.284 31.968 274.996 32.528C274.644 33.2 274.244 33.552 273.796 33.552C273.028 33.552 272.276 33.024 271.524 32C271.252 31.632 271.012 31.232 270.804 30.8C269.844 31.6 268.788 32.24 267.636 32.72L266.724 31.36C268.004 30.848 269.156 30.16 270.164 29.264C269.956 28.688 269.764 28.096 269.604 27.456C269.396 26.656 269.236 25.744 269.108 24.704L267.156 25.008L266.932 23.536L268.948 23.216C268.836 21.936 268.772 20.496 268.772 18.912H270.308C270.308 20.416 270.34 21.776 270.436 22.992L274.852 22.32ZM272.436 18.832C273.012 19.536 273.572 20.32 274.1 21.168L272.82 21.808C272.308 20.928 271.764 20.144 271.188 19.44L272.436 18.832ZM291.877 20.576H293.861L298.261 32H296.389L295.317 29.056H290.405L289.333 32H287.477L291.877 20.576ZM290.933 27.616H294.789L292.901 22.448H292.837L290.933 27.616ZM302.658 23.504C303.746 23.504 304.578 23.936 305.186 24.832V23.728H306.882V31.456C306.882 34.08 305.586 35.392 303.026 35.392C301.874 35.392 300.994 35.168 300.386 34.736C299.778 34.288 299.41 33.616 299.25 32.704H300.946C301.042 33.184 301.234 33.536 301.554 33.744C301.858 33.936 302.354 34.048 303.026 34.048C304.466 34.048 305.186 33.264 305.186 31.712V30.432C304.578 31.344 303.746 31.808 302.658 31.808C301.538 31.808 300.626 31.424 299.938 30.672C299.234 29.92 298.898 28.928 298.898 27.68C298.898 26.432 299.234 25.44 299.938 24.672C300.626 23.888 301.538 23.504 302.658 23.504ZM302.914 24.88C302.194 24.88 301.634 25.12 301.25 25.632C300.834 26.112 300.642 26.8 300.642 27.68C300.642 28.48 300.802 29.12 301.122 29.584C301.49 30.128 302.082 30.416 302.914 30.416C303.634 30.416 304.194 30.176 304.61 29.696C304.994 29.2 305.202 28.528 305.202 27.68C305.202 26.816 304.994 26.128 304.61 25.632C304.194 25.12 303.634 24.88 302.914 24.88ZM312.3 23.504C313.644 23.504 314.684 23.952 315.388 24.88C316.028 25.712 316.364 26.864 316.38 28.336H310.108C310.172 29.136 310.38 29.76 310.764 30.192C311.148 30.608 311.676 30.832 312.348 30.832C312.94 30.832 313.42 30.688 313.788 30.416C314.076 30.192 314.316 29.824 314.54 29.344H316.236C316.044 30.112 315.676 30.768 315.1 31.28C314.38 31.904 313.468 32.224 312.364 32.224C311.148 32.224 310.172 31.84 309.468 31.088C308.7 30.288 308.316 29.216 308.316 27.856C308.316 26.624 308.668 25.6 309.404 24.768C310.108 23.92 311.084 23.504 312.3 23.504ZM312.348 24.896C311.708 24.896 311.212 25.072 310.828 25.456C310.476 25.824 310.236 26.352 310.14 27.056H314.604C314.444 25.616 313.692 24.896 312.348 24.896ZM322.019 23.504C324.067 23.504 325.107 24.624 325.107 26.896V32H323.411V27.04C323.411 25.632 322.755 24.928 321.475 24.928C320.995 24.928 320.563 25.088 320.211 25.44C319.827 25.824 319.587 26.352 319.523 27.024V32H317.827V23.728H319.523V24.752C319.843 24.336 320.211 24.032 320.627 23.824C321.043 23.6 321.507 23.504 322.019 23.504ZM329.558 21.056V23.728H331.446V25.136H329.558V29.936C329.558 30.16 329.606 30.32 329.702 30.432C329.798 30.528 329.942 30.592 330.15 30.592H331.238V32H329.878C329.174 32 328.646 31.808 328.326 31.44C328.006 31.088 327.862 30.592 327.862 29.936V25.136H326.326V23.728H327.862V21.76L329.558 21.056Z" fill="#1D2333"/>
<rect x="338.5" y="20.5" width="11" height="11" rx="5.5" fill="white"/>
<rect x="338.5" y="20.5" width="11" height="11" rx="5.5" stroke="#E6E7EB"/>
<path d="M350 25.5C349.724 25.5 349.5 25.7239 349.5 26C349.5 26.2761 349.724 26.5 350 26.5V26V25.5ZM414 26L409 23.1132V28.8868L414 26ZM350 26V26.5H409.5V26V25.5H350V26Z" fill="#E6E7EB"/>
<rect x="414.5" y="2.5" width="111" height="47" rx="11.5" fill="white"/>
<rect x="414.5" y="2.5" width="111" height="47" rx="11.5" stroke="#E6E7EB"/>
<path d="M430 20V28" stroke="#1D2333" stroke-width="1.33333" stroke-linecap="round" stroke-linejoin="round"/>
<path d="M438 24C439.105 24 440 23.1046 440 22C440 20.8954 439.105 20 438 20C436.895 20 436 20.8954 436 22C436 23.1046 436.895 24 438 24Z" stroke="#1D2333" stroke-width="1.33333" stroke-linecap="round" stroke-linejoin="round"/>
<path d="M430 32C431.105 32 432 31.1046 432 30C432 28.8954 431.105 28 430 28C428.895 28 428 28.8954 428 30C428 31.1046 428.895 32 430 32Z" stroke="#1D2333" stroke-width="1.33333" stroke-linecap="round" stroke-linejoin="round"/>
<path d="M438 24C438 25.5913 437.368 27.1174 436.243 28.2426C435.117 29.3679 433.591 30 432 30" stroke="#1D2333" stroke-width="1.33333" stroke-linecap="round" stroke-linejoin="round"/>
<path d="M457.264 29.536H452.816V24.384H463.216V29.536H458.8V30.352H465.088V31.696H458.8V33.552H457.264V31.696H450.912V30.352H457.264V29.536ZM454.32 27.536V28.288H461.712V27.536H454.32ZM461.712 26.384V25.632H454.32V26.384H461.712ZM454.288 21.2H451.952V19.904H457.04C456.928 19.584 456.8 19.28 456.672 19.008L458.304 18.752C458.448 19.104 458.576 19.488 458.704 19.904H464.048V21.2H461.776L461.344 22.4H464.88V23.68H451.136V22.4H454.784L454.288 21.2ZM456.304 22.4H459.76L460.192 21.2H455.808L456.304 22.4ZM472.112 25.232H467.696V23.776H479.824C479.728 26.656 479.632 28.368 479.568 28.912C479.504 29.712 479.328 30.256 479.04 30.544C478.752 30.832 478.224 30.992 477.456 30.992C476.992 30.992 476.416 31.008 475.744 31.04L475.328 29.52C475.904 29.536 476.496 29.552 477.104 29.552C477.456 29.552 477.712 29.456 477.872 29.264C478.032 29.072 478.144 28.608 478.192 27.888C478.224 27.488 478.256 26.608 478.304 25.232H473.632V33.6H472.112V25.232ZM466.992 20.32H470.528V18.912H472.08V20.32H475.92V18.912H477.472V20.32H481.008V21.792H477.472V23.168H475.92V21.792H472.08V23.152H470.528V21.792H466.992V20.32ZM488.096 21.104H485.136V31.584H497.056V33.056H483.6V19.632H496.672V21.104H493.056V27.104C493.056 27.488 493.232 27.68 493.616 27.68H494.88C495.088 27.68 495.232 27.584 495.328 27.392C495.456 27.168 495.536 26.512 495.584 25.408L497.008 25.872C496.912 27.424 496.704 28.352 496.4 28.656C496.128 28.944 495.712 29.088 495.152 29.088H493.152C492.112 29.088 491.6 28.528 491.6 27.408V21.104H489.584C489.424 25.248 488.464 28.112 486.704 29.712L485.472 28.736C487.104 27.392 487.968 24.848 488.096 21.104ZM513.344 29.344C513.216 31.024 513.024 32.128 512.768 32.64C512.528 33.136 512.016 33.392 511.216 33.392H507.904C507.104 33.392 506.72 32.848 506.72 31.776V24.768H511.008V20.88H506.56V19.44H512.464V26.24H508.208V31.168C508.208 31.68 508.32 31.936 508.56 31.968H510.96C511.312 31.968 511.536 31.744 511.632 31.312C511.728 30.88 511.792 30.064 511.824 28.864L513.344 29.344ZM498.736 19.424H506.128V20.864H504.192V22.384H505.92V33.584H504.576V32.816H500.416V33.584H499.072V22.384H500.768V20.864H498.736V19.424ZM500.416 31.392H504.576V30.128H500.416V31.392ZM501.088 23.76H500.416V27.536C500.848 26.864 501.072 25.904 501.088 24.64V23.76ZM500.416 27.792V28.752H504.576V27.664H503.968C503.216 27.664 502.848 27.264 502.848 26.496V23.76H502.08V24.64C502.064 26.352 501.728 27.6 501.088 28.4L500.416 27.792ZM502.064 22.384H502.896V20.864H502.064V22.384ZM504.576 26.512V23.76H503.856V26.192C503.856 26.4 503.984 26.512 504.256 26.512H504.576Z" fill="#1D2333"/>
<rect x="520.5" y="20.5" width="11" height="11" rx="5.5" fill="white"/>
<rect x="520.5" y="20.5" width="11" height="11" rx="5.5" stroke="#E6E7EB"/>
<path d="M532 25.5C531.724 25.5 531.5 25.7239 531.5 26C531.5 26.2761 531.724 26.5 532 26.5V26V25.5ZM596 26L591 23.1132V28.8868L596 26ZM532 26V26.5H591.5V26V25.5H532V26Z" fill="#E6E7EB"/>
<rect x="595" y="1" width="164" height="50" rx="13" stroke="#CBD9FF" stroke-width="2"/>
<rect x="596.5" y="2.5" width="161" height="47" rx="11.5" fill="white"/>
<rect x="596.5" y="2.5" width="161" height="47" rx="11.5" stroke="#2258F4"/>
<path d="M616 20L614.725 23.8753C614.66 24.0737 614.549 24.2539 614.402 24.4016C614.254 24.5492 614.074 24.6601 613.875 24.7253L610 26L613.875 27.2747C614.074 27.3399 614.254 27.4508 614.402 27.5984C614.549 27.7461 614.66 27.9263 614.725 28.1247L616 32L617.275 28.1247C617.34 27.9263 617.451 27.7461 617.598 27.5984C617.746 27.4508 617.926 27.3399 618.125 27.2747L622 26L618.125 24.7253C617.926 24.6601 617.746 24.5492 617.598 24.4016C617.451 24.2539 617.34 24.0737 617.275 23.8753L616 20Z" stroke="#1D2333" stroke-width="1.33333" stroke-linecap="round" stroke-linejoin="round"/>
<path d="M611.333 20V22.6667" stroke="#1D2333" stroke-width="1.33333" stroke-linecap="round" stroke-linejoin="round"/>
<path d="M620.667 29.3333V32" stroke="#1D2333" stroke-width="1.33333" stroke-linecap="round" stroke-linejoin="round"/>
<path d="M610 21.3333H612.667" stroke="#1D2333" stroke-width="1.33333" stroke-linecap="round" stroke-linejoin="round"/>
<path d="M619.333 30.6667H622" stroke="#1D2333" stroke-width="1.33333" stroke-linecap="round" stroke-linejoin="round"/>
<path d="M639.412 29.536H634.964V24.384H645.364V29.536H640.948V30.352H647.236V31.696H640.948V33.552H639.412V31.696H633.06V30.352H639.412V29.536ZM636.468 27.536V28.288H643.86V27.536H636.468ZM643.86 26.384V25.632H636.468V26.384H643.86ZM636.436 21.2H634.1V19.904H639.188C639.076 19.584 638.948 19.28 638.82 19.008L640.452 18.752C640.596 19.104 640.724 19.488 640.852 19.904H646.196V21.2H643.924L643.492 22.4H647.028V23.68H633.284V22.4H636.932L636.436 21.2ZM638.452 22.4H641.908L642.34 21.2H637.956L638.452 22.4ZM654.26 25.232H649.844V23.776H661.972C661.876 26.656 661.78 28.368 661.716 28.912C661.652 29.712 661.476 30.256 661.188 30.544C660.9 30.832 660.372 30.992 659.604 30.992C659.14 30.992 658.564 31.008 657.892 31.04L657.476 29.52C658.052 29.536 658.644 29.552 659.252 29.552C659.604 29.552 659.86 29.456 660.02 29.264C660.18 29.072 660.292 28.608 660.34 27.888C660.372 27.488 660.404 26.608 660.452 25.232H655.78V33.6H654.26V25.232ZM649.14 20.32H652.676V18.912H654.228V20.32H658.068V18.912H659.62V20.32H663.156V21.792H659.62V23.168H658.068V21.792H654.228V23.152H652.676V21.792H649.14V20.32ZM668.148 23.168C667.508 24.608 666.708 25.808 665.732 26.768L664.74 25.504C666.18 23.984 667.156 21.936 667.668 19.36L669.22 19.632C669.06 20.368 668.884 21.056 668.692 21.696H671.668V19.008H673.188V21.696H678.324V23.168H673.188V26.48H678.004V27.952H673.188V31.6H679.348V33.104H665.156V31.6H671.668V27.952H667.092V26.48H671.668V23.168H668.148ZM692.228 18.768C692.964 19.328 693.588 19.888 694.1 20.464L693.364 21.2H695.284V22.656H690.516C690.628 24.544 690.82 26.016 691.092 27.056C691.156 27.328 691.236 27.6 691.316 27.856C691.988 26.672 692.548 25.328 692.996 23.808L694.388 24.4C693.748 26.448 692.948 28.208 691.956 29.648C692.132 30.032 692.308 30.352 692.484 30.624C692.964 31.328 693.348 31.696 693.604 31.696C693.812 31.696 694.02 30.912 694.228 29.344L695.604 30.08C695.204 32.288 694.612 33.408 693.844 33.408C693.14 33.408 692.404 32.928 691.636 31.984C691.38 31.664 691.156 31.312 690.948 30.928C689.876 32.128 688.628 33.04 687.22 33.664L686.356 32.384C687.892 31.696 689.188 30.704 690.244 29.392C690.02 28.816 689.828 28.192 689.652 27.52C689.3 26.224 689.076 24.608 688.964 22.656H683.812V24.992H687.732C687.7 27.888 687.556 29.712 687.3 30.48C687.044 31.152 686.5 31.488 685.668 31.504C685.284 31.504 684.836 31.472 684.34 31.424L683.876 30.048C684.516 30.08 685.044 30.112 685.492 30.112C685.78 30.096 685.956 29.92 686.052 29.568C686.148 29.152 686.196 28.096 686.228 26.432H683.812V26.528C683.748 29.488 683.092 31.856 681.876 33.648L680.724 32.624C681.716 31.168 682.244 29.136 682.292 26.528V21.2H688.884C688.852 20.448 688.852 19.664 688.852 18.848H690.388C690.388 19.68 690.42 20.464 690.452 21.2H692.916C692.484 20.72 691.94 20.208 691.268 19.696L692.228 18.768ZM705.877 20.576H707.861L712.261 32H710.389L709.317 29.056H704.405L703.333 32H701.477L705.877 20.576ZM704.933 27.616H708.789L706.901 22.448H706.837L704.933 27.616ZM716.658 23.504C717.746 23.504 718.578 23.936 719.186 24.832V23.728H720.882V31.456C720.882 34.08 719.586 35.392 717.026 35.392C715.874 35.392 714.994 35.168 714.386 34.736C713.778 34.288 713.41 33.616 713.25 32.704H714.946C715.042 33.184 715.234 33.536 715.554 33.744C715.858 33.936 716.354 34.048 717.026 34.048C718.466 34.048 719.186 33.264 719.186 31.712V30.432C718.578 31.344 717.746 31.808 716.658 31.808C715.538 31.808 714.626 31.424 713.938 30.672C713.234 29.92 712.898 28.928 712.898 27.68C712.898 26.432 713.234 25.44 713.938 24.672C714.626 23.888 715.538 23.504 716.658 23.504ZM716.914 24.88C716.194 24.88 715.634 25.12 715.25 25.632C714.834 26.112 714.642 26.8 714.642 27.68C714.642 28.48 714.802 29.12 715.122 29.584C715.49 30.128 716.082 30.416 716.914 30.416C717.634 30.416 718.194 30.176 718.61 29.696C718.994 29.2 719.202 28.528 719.202 27.68C719.202 26.816 718.994 26.128 718.61 25.632C718.194 25.12 717.634 24.88 716.914 24.88ZM726.3 23.504C727.644 23.504 728.684 23.952 729.388 24.88C730.028 25.712 730.364 26.864 730.38 28.336H724.108C724.172 29.136 724.38 29.76 724.764 30.192C725.148 30.608 725.676 30.832 726.348 30.832C726.94 30.832 727.42 30.688 727.788 30.416C728.076 30.192 728.316 29.824 728.54 29.344H730.236C730.044 30.112 729.676 30.768 729.1 31.28C728.38 31.904 727.468 32.224 726.364 32.224C725.148 32.224 724.172 31.84 723.468 31.088C722.7 30.288 722.316 29.216 722.316 27.856C722.316 26.624 722.668 25.6 723.404 24.768C724.108 23.92 725.084 23.504 726.3 23.504ZM726.348 24.896C725.708 24.896 725.212 25.072 724.828 25.456C724.476 25.824 724.236 26.352 724.14 27.056H728.604C728.444 25.616 727.692 24.896 726.348 24.896ZM736.019 23.504C738.067 23.504 739.107 24.624 739.107 26.896V32H737.411V27.04C737.411 25.632 736.755 24.928 735.475 24.928C734.995 24.928 734.563 25.088 734.211 25.44C733.827 25.824 733.587 26.352 733.523 27.024V32H731.827V23.728H733.523V24.752C733.843 24.336 734.211 24.032 734.627 23.824C735.043 23.6 735.507 23.504 736.019 23.504ZM743.558 21.056V23.728H745.446V25.136H743.558V29.936C743.558 30.16 743.606 30.32 743.702 30.432C743.798 30.528 743.942 30.592 744.15 30.592H745.238V32H743.878C743.174 32 742.646 31.808 742.326 31.44C742.006 31.088 741.862 30.592 741.862 29.936V25.136H740.326V23.728H741.862V21.76L743.558 21.056Z" fill="#1D2333"/>
<rect x="674" y="54" width="6" height="6" rx="3" fill="#2258F4"/>
<path d="M677 84V60M553 84L553 76C553 71.5817 556.582 68 561 68H793C797.418 68 801 71.5817 801 76V84" stroke="#2258F4" stroke-linecap="round"/>
<rect x="752.5" y="20.5" width="11" height="11" rx="5.5" fill="white"/>
<rect x="752.5" y="20.5" width="11" height="11" rx="5.5" stroke="#2258F4"/>
<path d="M764 25.5C763.724 25.5 763.5 25.7239 763.5 26C763.5 26.2761 763.724 26.5 764 26.5V26V25.5ZM838.333 26L833.333 23.1132V28.8868L838.333 26ZM764 26V26.5H833.833V26V25.5H764V26Z" fill="#2258F4"/>
<rect x="838.833" y="2.5" width="111" height="47" rx="11.5" fill="white"/>
<rect x="838.833" y="2.5" width="111" height="47" rx="11.5" stroke="#E6E7EB"/>
<path d="M854.334 32.6667C853.98 32.6667 853.641 32.5262 853.391 32.2761C853.141 32.0261 853 31.687 853 31.3333V20.6667C853 20.313 853.141 19.9739 853.391 19.7239C853.641 19.4738 853.98 19.3333 854.334 19.3333H859.667C859.878 19.333 860.087 19.3744 860.282 19.4552C860.477 19.536 860.654 19.6545 860.803 19.804L863.195 22.196C863.345 22.345 863.464 22.5222 863.545 22.7174C863.626 22.9126 863.667 23.122 863.667 23.3333V31.3333C863.667 31.687 863.526 32.0261 863.276 32.2761C863.026 32.5262 862.687 32.6667 862.334 32.6667H854.334Z" stroke="#1D2333" stroke-width="1.33333" stroke-linecap="round" stroke-linejoin="round"/>
<path d="M859.667 19.3333V22.6667C859.667 22.8435 859.737 23.013 859.862 23.1381C859.987 23.2631 860.157 23.3333 860.333 23.3333H863.667" stroke="#1D2333" stroke-width="1.33333" stroke-linecap="round" stroke-linejoin="round"/>
<path d="M856.333 28L857.667 29.3333L860.333 26.6667" stroke="#1D2333" stroke-width="1.33333" stroke-linecap="round" stroke-linejoin="round"/>
<path d="M880.573 25.136V26.64C879.997 26.928 879.437 27.184 878.861 27.424V32C878.861 33.056 878.349 33.6 877.325 33.6H875.821L875.469 32.144C875.933 32.208 876.365 32.24 876.781 32.24C877.165 32.24 877.373 32.032 877.373 31.632V28.016C876.669 28.272 875.965 28.512 875.261 28.736L874.877 27.232C875.725 27.04 876.557 26.816 877.373 26.528V23.152H875.181V21.696H877.373V18.928H878.861V21.696H880.525V23.152H878.861V25.952C879.437 25.696 880.013 25.424 880.573 25.136ZM882.669 26.544V33.648H881.229V19.44H888.605C888.605 21.328 888.493 22.576 888.301 23.2C888.093 23.808 887.453 24.112 886.381 24.112H885.181L884.765 22.8C885.005 22.8 885.309 22.816 885.693 22.816C886.061 22.816 886.349 22.8 886.541 22.768C886.701 22.72 886.845 22.608 886.941 22.448C887.053 22.208 887.117 21.664 887.149 20.816H882.669V25.152H888.717V26.464C888.461 28.112 887.949 29.52 887.181 30.672C887.917 31.344 888.781 31.952 889.805 32.496L888.781 33.68C887.821 33.072 887.005 32.448 886.317 31.776C885.581 32.56 884.685 33.2 883.661 33.696L882.925 32.368C883.853 31.92 884.637 31.344 885.277 30.64C884.253 29.376 883.629 28.016 883.373 26.544H882.669ZM884.733 26.544C884.941 27.632 885.405 28.624 886.125 29.536C886.653 28.672 887.037 27.664 887.293 26.544H884.733ZM903.741 27.568V33.632H902.205V32.864H894.557V33.632H893.021V27.568H903.741ZM894.557 31.44H902.205V29.008H894.557V31.44ZM894.189 22.464C893.645 23.2 893.021 23.856 892.301 24.448L891.389 23.248C892.797 22.112 893.757 20.72 894.269 19.056L895.773 19.248C895.581 19.872 895.357 20.464 895.085 21.008H897.773V18.864H899.293V21.008H904.397V22.464H899.293V24.672H905.613V26.16H891.053V24.672H897.773V22.464H894.189ZM909.821 23.376H911.245V25.584H912.589V26.944H911.245V28.72C911.725 28.608 912.189 28.496 912.605 28.384V29.808C912.157 29.936 911.693 30.048 911.245 30.176V33.648H909.821V30.496C908.973 30.656 908.093 30.816 907.165 30.944L906.973 29.456C907.997 29.328 908.941 29.184 909.821 29.024V26.944H907.485L907.165 25.664C907.549 24.8 907.917 23.728 908.253 22.432H907.101V20.992H908.589C908.733 20.304 908.877 19.584 909.005 18.848L910.381 19.168C910.253 19.808 910.141 20.416 910.013 20.992H912.669V22.432H909.661C909.341 23.6 909.005 24.656 908.653 25.584H909.821V23.376ZM914.685 22.832C914.125 23.344 913.565 23.808 913.005 24.24L912.173 22.976C913.789 21.824 915.229 20.464 916.509 18.896H917.629C919.005 20.576 920.397 21.904 921.837 22.896L921.037 24.096C920.445 23.664 919.885 23.2 919.341 22.72V23.648H914.685V22.832ZM919.005 22.4C918.317 21.728 917.677 21.024 917.069 20.272C916.429 21.04 915.773 21.76 915.133 22.4H919.005ZM915.821 33.536H915.117L914.781 32.304L915.405 32.352C915.709 32.352 915.869 32.176 915.869 31.84V30.688H914.429V33.648H913.117V24.672H917.165V32.112C917.165 33.056 916.717 33.536 915.821 33.536ZM914.429 29.536H915.869V28.304H914.429V29.536ZM914.429 27.152H915.869V25.888H914.429V27.152ZM917.837 25.152H918.989V30.96H917.837V25.152ZM919.741 33.568H918.365L918.045 32.24C918.477 32.304 918.877 32.336 919.261 32.336C919.549 32.336 919.709 32.128 919.709 31.712V24.512H921.037V32.032C921.037 33.056 920.605 33.568 919.741 33.568ZM934.461 24.32V20.08H935.997V25.792H931.117V31.312H935.261V27.072H936.781V33.536H935.261V32.768H923.885V27.072H925.405V31.312H929.549V25.792H924.669V20.08H926.205V24.32H929.549V18.864H931.117V24.32H934.461Z" fill="#1D2333"/>
<rect x="550" y="90" width="6" height="6" rx="3" fill="#2258F4"/>
<rect x="503.5" y="100.5" width="99" height="39" rx="11.5" fill="white"/>
<rect x="503.5" y="100.5" width="99" height="39" rx="11.5" stroke="#D7DEEF"/>
<path d="M523.575 116.675C523.468 116.784 523.408 116.931 523.408 117.083C523.408 117.236 523.468 117.383 523.575 117.492L524.508 118.425C524.617 118.532 524.764 118.592 524.917 118.592C525.069 118.592 525.216 118.532 525.325 118.425L527.524 116.226C527.818 116.874 527.906 117.596 527.779 118.296C527.651 118.996 527.313 119.641 526.81 120.144C526.307 120.647 525.663 120.985 524.963 121.112C524.263 121.24 523.541 121.151 522.893 120.857L518.862 124.888C518.63 125.12 518.315 125.251 517.987 125.251C517.659 125.251 517.344 125.12 517.112 124.888C516.88 124.656 516.749 124.342 516.749 124.013C516.749 123.685 516.88 123.37 517.112 123.138L521.143 119.107C520.849 118.459 520.76 117.737 520.888 117.037C521.015 116.337 521.353 115.693 521.856 115.19C522.359 114.687 523.004 114.349 523.704 114.221C524.404 114.094 525.126 114.183 525.774 114.476L523.581 116.669L523.575 116.675Z" stroke="#23304A" stroke-width="1.16667" stroke-linecap="round" stroke-linejoin="round"/>
<path d="M541.496 115.606H536.694V114.64H547.348V115.606H542.532V124.468H548.258V125.434H535.756V124.468H541.496V115.606ZM560.2 114.108V122.676H562.216V123.614H557.988C559.43 124.146 560.746 124.79 561.922 125.532L561.362 126.386C560.046 125.518 558.702 124.818 557.33 124.314L557.806 123.614H553.886L554.614 124.244C553.55 125.07 552.248 125.798 550.68 126.414L550.064 125.616C551.576 125.028 552.836 124.37 553.858 123.614H549.784V122.676H551.8V114.108H560.2ZM552.822 122.676H559.178V121.36H552.822V122.676ZM552.822 120.548H559.178V119.26H552.822V120.548ZM552.822 118.434H559.178V117.132H552.822V118.434ZM552.822 116.334H559.178V115.06H552.822V116.334ZM567.788 114.99H571.456V113.562H572.478V114.99H576.328V115.956H572.478V117.286H575.754V121.248H572.422C572.31 122.508 572.072 123.474 571.694 124.174C573.094 124.944 574.718 125.378 576.552 125.476L576.3 126.442C574.34 126.316 572.618 125.826 571.134 124.958C570.378 125.728 569.188 126.232 567.564 126.47L567.13 125.546C568.558 125.392 569.608 125 570.252 124.384C569.426 123.796 568.684 123.082 568.04 122.256L568.81 121.724C569.412 122.48 570.084 123.11 570.826 123.642C571.12 123.026 571.316 122.228 571.4 121.248H568.264V117.286H571.456V115.956H567.788V114.99ZM574.802 120.338V118.182H572.478V120.002C572.478 120.114 572.464 120.226 572.464 120.338H574.802ZM571.442 120.338C571.442 120.226 571.456 120.114 571.456 120.002V118.182H569.216V120.338H571.442ZM565.226 118.616C564.778 119.246 564.302 119.848 563.77 120.422L563.434 119.358C564.89 117.65 565.94 115.69 566.584 113.478L567.536 113.912C567.186 115.004 566.752 116.04 566.234 117.006V126.428H565.226V118.616ZM579.982 118.448V120.898H583.538V118.448H579.982ZM579.926 121.822C579.772 123.614 579.254 125.098 578.358 126.274L577.588 125.588C578.484 124.342 578.946 122.76 578.974 120.842V114.122H589.404V124.608C589.404 125.588 588.914 126.078 587.934 126.078H586.324L586.058 125.084C586.618 125.112 587.136 125.14 587.612 125.14C588.116 125.14 588.382 124.846 588.382 124.258V121.822H584.574V125.924H583.538V121.822H579.926ZM588.382 120.898V118.448H584.574V120.898H588.382ZM588.382 117.51V115.102H584.574V117.51H588.382ZM583.538 115.102H579.982V117.51H583.538V115.102Z" fill="#23304A"/>
<rect x="674" y="90" width="6" height="6" rx="3" fill="#2258F4"/>
<rect x="627.5" y="100.5" width="99" height="39" rx="11.5" fill="white"/>
<rect x="627.5" y="100.5" width="99" height="39" rx="11.5" stroke="#D7DEEF"/>
<g clip-path="url(#clip0_49_3)">
<path d="M646 114V116.292C646 120.403 643.677 124.161 640 126M648 116L646 114L644 116" stroke="#23304A" stroke-width="1.16667" stroke-linecap="round" stroke-linejoin="round"/>
<path d="M648 121L648.233 121.932C648.711 123.843 650.132 125.377 652 126" stroke="#23304A" stroke-width="1.16667" stroke-linecap="round" stroke-linejoin="round"/>
</g>
<path d="M668.212 116.67L668.03 117.398C668.38 119.036 668.828 120.45 669.388 121.626C669.934 120.212 670.228 118.56 670.284 116.67H668.212ZM668.926 122.634C668.38 121.556 667.918 120.324 667.54 118.924C667.288 119.568 667.008 120.142 666.714 120.646L666.084 119.876C666.91 118.308 667.47 116.194 667.75 113.534L668.73 113.702C668.646 114.416 668.534 115.088 668.422 115.704H672.118V116.67H671.208C671.138 119.008 670.704 121.01 669.92 122.662C670.648 123.922 671.502 124.888 672.51 125.574L671.964 126.4C670.984 125.7 670.144 124.748 669.444 123.572C668.772 124.692 667.904 125.63 666.854 126.386L666.336 125.546C667.428 124.79 668.282 123.824 668.926 122.634ZM662.29 120.072L663.228 120.184C663.13 120.45 663.032 120.702 662.948 120.954H665.874V121.78C665.566 122.704 665.048 123.502 664.32 124.174C664.992 124.482 665.636 124.79 666.252 125.126L665.706 125.91C665.09 125.546 664.376 125.168 663.55 124.804C662.626 125.448 661.464 125.966 660.064 126.358L659.588 125.518C660.736 125.21 661.73 124.832 662.542 124.37C661.926 124.104 661.282 123.838 660.596 123.586C660.96 122.97 661.282 122.396 661.562 121.836H659.91V120.954H661.954C662.08 120.646 662.192 120.352 662.29 120.072ZM663.396 123.782C664.096 123.222 664.628 122.564 664.964 121.836H662.556C662.332 122.312 662.08 122.76 661.8 123.18C662.36 123.376 662.892 123.572 663.396 123.782ZM661.016 113.828C661.352 114.374 661.632 114.962 661.884 115.578L661.156 115.914C660.862 115.228 660.554 114.626 660.218 114.094L661.016 113.828ZM665.272 113.786L666 114.122C665.72 114.738 665.37 115.34 664.922 115.928L664.208 115.564C664.656 114.962 665.02 114.374 665.272 113.786ZM659.938 116.25H662.668V113.576H663.606V116.25H666.154V117.132H663.606V117.286C664.362 117.664 665.146 118.098 665.93 118.574L665.412 119.358C664.712 118.798 664.11 118.35 663.606 118.014V119.834H662.668V117.174C662.206 118.28 661.366 119.232 660.162 120.044L659.672 119.232C660.75 118.602 661.506 117.902 661.926 117.132H659.938V116.25ZM675.296 126.274H674.106L673.896 125.322C674.26 125.364 674.624 125.392 674.96 125.392C675.31 125.392 675.492 125.182 675.492 124.79V121.36C674.932 121.57 674.386 121.766 673.84 121.934L673.588 120.954C674.232 120.8 674.876 120.604 675.492 120.38V117.216H673.812V116.25H675.492V113.604H676.472V116.25H677.816V117.216H676.472V119.974C676.92 119.778 677.354 119.568 677.774 119.344V120.338C677.34 120.562 676.906 120.758 676.472 120.954V125.042C676.472 125.854 676.08 126.274 675.296 126.274ZM679.482 120.086C679.314 122.48 678.768 124.58 677.844 126.4L677.06 125.7C678.054 123.852 678.558 121.444 678.572 118.504V114.122H685.95V117.524H683.318V119.176H686.314V120.086H683.318V121.808H685.67V126.4H684.732V125.714H680.938V126.4H680V121.808H682.338V120.086H679.482ZM682.338 117.524H679.552V118.504C679.552 118.728 679.538 118.952 679.538 119.176H682.338V117.524ZM680.938 124.818H684.732V122.704H680.938V124.818ZM684.97 115.06H679.552V116.614H684.97V115.06ZM693.636 113.548H694.364C696.142 115.606 698.2 117.23 700.524 118.406L699.978 119.372C697.64 118.112 695.652 116.474 694 114.458C692.474 116.362 690.458 118 687.966 119.4L687.434 118.434C689.926 117.118 691.984 115.494 693.636 113.548ZM698.424 120.744V126.386H697.444V125.546H690.556V126.386H689.576V120.744H698.424ZM690.556 124.58H697.444V121.696H690.556V124.58ZM690.36 118H697.64V118.966H690.36V118ZM705.844 119.414L705.62 118.56C705.704 118.532 705.774 118.504 705.83 118.476C706.362 118.14 707.034 117.286 707.874 115.9H705.424V114.99H709.33C709.134 114.472 708.924 113.996 708.7 113.562L709.722 113.394C709.946 113.87 710.142 114.402 710.338 114.99H714.02V115.9H708.91C708.252 117.062 707.678 117.916 707.174 118.462C708.784 118.378 710.38 118.238 711.976 118.042C711.668 117.636 711.36 117.23 711.024 116.81L711.85 116.32C712.802 117.468 713.516 118.462 714.02 119.33L713.194 119.918C712.998 119.568 712.774 119.218 712.55 118.854C710.492 119.092 708.252 119.274 705.844 119.414ZM702.834 113.758C703.688 114.36 704.402 114.962 704.99 115.564L704.276 116.278C703.744 115.704 703.03 115.102 702.106 114.458L702.834 113.758ZM702.498 117.104C703.38 117.776 704.122 118.462 704.71 119.134L703.996 119.862C703.464 119.218 702.722 118.532 701.784 117.804L702.498 117.104ZM703.926 120.828L704.822 121.178C704.262 122.97 703.66 124.65 702.988 126.218L702.05 125.812C702.778 124.188 703.394 122.536 703.926 120.828ZM708.7 120.058H709.722V126.12H708.7V120.058ZM706.432 120.044H707.412C707.356 121.878 707.174 123.222 706.866 124.076C706.53 124.972 705.956 125.742 705.172 126.386L704.528 125.588C705.2 125.042 705.676 124.398 705.956 123.642C706.222 122.9 706.376 121.696 706.432 120.044ZM713.096 126.26H712.396C711.584 126.26 711.192 125.896 711.192 125.168V120.058H712.158V124.986C712.158 125.196 712.242 125.308 712.424 125.336H713.04C713.292 125.308 713.432 125.154 713.46 124.846C713.516 124.51 713.544 123.964 713.544 123.222L714.426 123.558C714.426 124.79 714.342 125.546 714.174 125.826C714.006 126.078 713.656 126.232 713.096 126.26Z" fill="#23304A"/>
<rect x="798" y="90" width="6" height="6" rx="3" fill="#2258F4"/>
<rect x="751.5" y="100.5" width="99" height="39" rx="11.5" fill="white"/>
<rect x="751.5" y="100.5" width="99" height="39" rx="11.5" stroke="#D7DEEF"/>
<path d="M774.667 120.583C774.667 123.5 772.625 124.958 770.198 125.804C770.071 125.847 769.933 125.845 769.807 125.798C767.375 124.958 765.333 123.5 765.333 120.583V116.5C765.333 116.345 765.395 116.197 765.504 116.088C765.614 115.978 765.762 115.917 765.917 115.917C767.083 115.917 768.542 115.217 769.557 114.33C769.68 114.224 769.837 114.166 770 114.166C770.162 114.166 770.32 114.224 770.443 114.33C771.464 115.222 772.917 115.917 774.083 115.917C774.238 115.917 774.386 115.978 774.496 116.088C774.605 116.197 774.667 116.345 774.667 116.5V120.583Z" stroke="#23304A" stroke-width="1.16667" stroke-linecap="round" stroke-linejoin="round"/>
<path d="M768.25 120L769.417 121.167L771.75 118.833" stroke="#23304A" stroke-width="1.16667" stroke-linecap="round" stroke-linejoin="round"/>
<path d="M786.038 117.65V118.882C785.968 121.962 785.366 124.426 784.218 126.274L783.518 125.532C784.47 123.936 784.988 121.71 785.072 118.882V114.5C788.768 114.472 792.1 114.178 795.054 113.646L795.558 114.556C792.73 115.032 789.552 115.298 786.038 115.354V116.726H790.714C790.784 116.306 790.84 115.872 790.882 115.452L791.89 115.578C791.848 115.97 791.792 116.362 791.736 116.726H796.174V117.65H791.582C791.498 118.126 791.4 118.56 791.288 118.98H794.886V123.74H793.92V119.904H788.39V123.796H787.424V118.98H790.266C790.378 118.532 790.476 118.098 790.56 117.65H786.038ZM791.96 123.418C793.514 124.006 794.928 124.706 796.202 125.532L795.642 126.386C794.284 125.462 792.884 124.72 791.456 124.174L791.96 123.418ZM790.924 120.464L791.904 120.534C791.736 122.186 791.232 123.46 790.392 124.328C789.524 125.196 788.194 125.896 786.416 126.4L785.87 125.476C787.522 125.056 788.74 124.482 789.524 123.726C790.308 122.97 790.77 121.878 790.924 120.464ZM799.142 119.428H808.886V122.998H804.49V123.782H809.236V124.454H804.49V125.28H810.258V126.064H797.742V125.28H803.482V124.454H798.792V123.782H803.482V122.998H799.142V119.428ZM807.92 122.368V121.514H804.49V122.368H807.92ZM803.482 122.368V121.514H800.108V122.368H803.482ZM800.108 120.926H803.482V120.058H800.108V120.926ZM804.49 120.058V120.926H807.92V120.058H804.49ZM799.45 113.786H808.592V117.244H799.45V113.786ZM807.612 116.642V115.816H800.43V116.642H807.612ZM800.43 115.214H807.612V114.402H800.43V115.214ZM797.728 117.972H810.272V118.728H797.728V117.972ZM814.654 119.274V126.4H813.688V119.386C813.24 120.814 812.652 122.102 811.938 123.25L811.518 122.228C812.512 120.772 813.226 119.12 813.646 117.272H811.756V116.306H813.688V113.576H814.654V116.306H816.306V117.272H814.654V118.182C815.326 118.952 815.998 119.82 816.698 120.8L816.138 121.654C815.564 120.674 815.074 119.876 814.654 119.274ZM816.656 115.102H820.156C819.96 114.598 819.736 114.136 819.484 113.716L820.52 113.548C820.73 113.996 820.94 114.514 821.136 115.102H824.244V116.012H820.408C819.638 117.37 818.966 118.336 818.378 118.91C819.274 118.854 820.156 118.798 821.024 118.728C821.388 118.224 821.71 117.706 821.99 117.146L822.802 117.58C821.402 120.352 819.358 122.256 816.642 123.264L816.096 122.424C817.79 121.822 819.204 120.884 820.352 119.596C819.372 119.652 818.322 119.708 817.216 119.75L817.006 118.924C817.09 118.896 817.146 118.868 817.202 118.84C817.762 118.476 818.476 117.538 819.372 116.012H816.656V115.102ZM821.136 123.558C819.792 124.762 818.238 125.686 816.446 126.302L815.9 125.434C819.19 124.356 821.654 122.284 823.292 119.218L824.146 119.666C823.474 120.926 822.676 122.018 821.766 122.942C822.774 123.838 823.642 124.72 824.342 125.602L823.614 126.33C822.998 125.462 822.172 124.538 821.136 123.558ZM832.462 117.678C831.958 118.238 831.426 118.742 830.866 119.176L830.334 118.364C831.902 117.146 833.12 115.564 833.96 113.618H834.884C835.584 115.41 836.816 116.964 838.552 118.308L838.006 119.148C837.404 118.686 836.872 118.196 836.396 117.678V118.546H832.462V117.678ZM836.354 117.622C835.542 116.698 834.898 115.69 834.422 114.598C833.862 115.774 833.232 116.782 832.504 117.622H836.354ZM830.74 124.944H835.29C835.822 123.46 836.298 121.612 836.718 119.414L837.684 119.652C837.292 121.64 836.83 123.404 836.27 124.944H838.384V125.91H830.74V124.944ZM832.028 119.82C832.476 120.982 832.868 122.326 833.232 123.838L832.364 124.048C832.056 122.676 831.65 121.374 831.16 120.114L832.028 119.82ZM834.184 119.414C834.562 120.52 834.898 121.794 835.206 123.236L834.324 123.446C834.072 122.144 833.736 120.884 833.316 119.68L834.184 119.414ZM829.172 115.13H825.784V114.206H830.18L829.508 119.974H830.376C830.376 123.166 830.236 125 829.97 125.49C829.69 125.966 829.116 126.218 828.234 126.218C827.912 126.218 827.576 126.204 827.24 126.176L826.974 125.28C827.464 125.336 827.814 125.364 828.01 125.364C828.682 125.364 829.088 125.14 829.228 124.72C829.368 124.272 829.452 122.998 829.452 120.87H825.882L826.54 116.068L827.464 116.124L826.904 119.974H828.556L829.172 115.13ZM828.654 122.116V123.026C827.73 123.376 826.694 123.656 825.532 123.88L825.406 122.928C826.638 122.718 827.73 122.452 828.654 122.116Z" fill="#23304A"/>
<rect x="550" y="144" width="6" height="6" rx="3" fill="#2258F4"/>
<path d="M553 176V154M673 176V172.25C673 167.832 669.418 164.25 665 164.25H441C436.582 164.25 433 167.832 433 172.25V176" stroke="#CBCDD4" stroke-linecap="round"/>
<rect x="430" y="180" width="6" height="6" rx="3" fill="#2258F4"/>
<rect x="409.5" y="190.5" width="47" height="28" rx="14" fill="#EAF1FF"/>
<rect x="409.5" y="190.5" width="47" height="28" rx="14" stroke="#CBD9FF"/>
<path d="M420.324 200.273H421.922L424.7 207.057H424.803L427.581 200.273H429.179V209H427.926V202.685H427.845L425.271 208.987H424.232L421.658 202.68H421.577V209H420.324V200.273ZM438.342 203.111H437.013C436.961 202.827 436.866 202.577 436.727 202.361C436.588 202.145 436.417 201.962 436.216 201.811C436.014 201.661 435.788 201.547 435.538 201.47C435.291 201.393 435.028 201.355 434.75 201.355C434.247 201.355 433.797 201.482 433.399 201.734C433.004 201.987 432.692 202.358 432.461 202.847C432.234 203.335 432.121 203.932 432.121 204.636C432.121 205.347 432.234 205.946 432.461 206.435C432.692 206.923 433.006 207.293 433.403 207.543C433.801 207.793 434.248 207.918 434.746 207.918C435.021 207.918 435.282 207.881 435.53 207.807C435.78 207.73 436.006 207.618 436.207 207.47C436.409 207.322 436.579 207.142 436.719 206.929C436.861 206.713 436.959 206.466 437.013 206.188L438.342 206.192C438.271 206.621 438.133 207.016 437.929 207.376C437.727 207.734 437.467 208.044 437.149 208.305C436.834 208.564 436.473 208.764 436.067 208.906C435.66 209.048 435.217 209.119 434.737 209.119C433.981 209.119 433.308 208.94 432.717 208.582C432.126 208.222 431.66 207.706 431.319 207.036C430.981 206.365 430.812 205.565 430.812 204.636C430.812 203.705 430.983 202.905 431.324 202.237C431.665 201.567 432.131 201.053 432.721 200.695C433.312 200.334 433.984 200.153 434.737 200.153C435.2 200.153 435.632 200.22 436.032 200.354C436.436 200.484 436.798 200.678 437.119 200.933C437.44 201.186 437.706 201.496 437.916 201.862C438.126 202.226 438.268 202.642 438.342 203.111ZM439.918 209V200.273H443.029C443.708 200.273 444.27 200.396 444.716 200.643C445.162 200.891 445.496 201.229 445.718 201.658C445.939 202.084 446.05 202.564 446.05 203.098C446.05 203.635 445.938 204.118 445.713 204.547C445.492 204.973 445.156 205.311 444.708 205.561C444.262 205.808 443.7 205.932 443.024 205.932H440.885V204.815H442.905C443.334 204.815 443.682 204.741 443.949 204.594C444.216 204.443 444.412 204.239 444.537 203.98C444.662 203.722 444.725 203.428 444.725 203.098C444.725 202.768 444.662 202.476 444.537 202.22C444.412 201.964 444.215 201.764 443.945 201.619C443.678 201.474 443.325 201.402 442.888 201.402H441.235V209H439.918Z" fill="#2258F4"/>
<rect x="550" y="180" width="6" height="6" rx="3" fill="#2258F4"/>
<rect x="506.5" y="190.5" width="93" height="28" rx="14" fill="#EAF1FF"/>
<rect x="506.5" y="190.5" width="93" height="28" rx="14" stroke="#CBD9FF"/>
<path d="M519.692 209.128C519.163 209.128 518.692 208.993 518.277 208.723C517.865 208.45 517.541 208.062 517.305 207.56C517.072 207.054 516.956 206.447 516.956 205.74C516.956 205.033 517.074 204.428 517.309 203.925C517.548 203.422 517.875 203.037 518.29 202.77C518.704 202.503 519.175 202.369 519.7 202.369C520.106 202.369 520.433 202.438 520.68 202.574C520.93 202.707 521.123 202.864 521.26 203.043C521.399 203.222 521.507 203.379 521.584 203.516H521.66V200.273H522.934V209H521.69V207.982H521.584C521.507 208.121 521.396 208.28 521.251 208.459C521.109 208.638 520.913 208.794 520.663 208.928C520.413 209.061 520.089 209.128 519.692 209.128ZM519.973 208.041C520.339 208.041 520.649 207.945 520.902 207.751C521.157 207.555 521.351 207.284 521.481 206.938C521.615 206.591 521.682 206.187 521.682 205.727C521.682 205.273 521.616 204.875 521.486 204.534C521.355 204.193 521.163 203.928 520.91 203.737C520.657 203.547 520.345 203.452 519.973 203.452C519.589 203.452 519.27 203.551 519.014 203.75C518.758 203.949 518.565 204.22 518.434 204.564C518.307 204.908 518.243 205.295 518.243 205.727C518.243 206.165 518.308 206.558 518.439 206.908C518.569 207.257 518.763 207.534 519.018 207.739C519.277 207.94 519.595 208.041 519.973 208.041ZM527.574 209.132C526.929 209.132 526.374 208.994 525.908 208.719C525.445 208.44 525.087 208.05 524.834 207.547C524.584 207.041 524.459 206.449 524.459 205.77C524.459 205.099 524.584 204.509 524.834 203.997C525.087 203.486 525.439 203.087 525.891 202.8C526.345 202.513 526.877 202.369 527.485 202.369C527.854 202.369 528.212 202.43 528.558 202.553C528.905 202.675 529.216 202.866 529.492 203.128C529.767 203.389 529.985 203.729 530.144 204.146C530.303 204.561 530.382 205.065 530.382 205.659V206.111H525.179V205.156H529.134C529.134 204.821 529.066 204.524 528.929 204.266C528.793 204.004 528.601 203.798 528.354 203.648C528.11 203.497 527.823 203.422 527.493 203.422C527.135 203.422 526.823 203.51 526.556 203.686C526.291 203.859 526.087 204.087 525.942 204.368C525.8 204.646 525.729 204.949 525.729 205.276V206.021C525.729 206.459 525.806 206.831 525.959 207.138C526.115 207.445 526.333 207.679 526.611 207.841C526.889 208 527.215 208.08 527.587 208.08C527.828 208.08 528.048 208.045 528.247 207.977C528.446 207.906 528.618 207.801 528.763 207.662C528.908 207.523 529.019 207.351 529.095 207.146L530.301 207.364C530.205 207.719 530.031 208.03 529.781 208.297C529.534 208.561 529.223 208.767 528.848 208.915C528.476 209.06 528.051 209.132 527.574 209.132ZM534.617 209.132C533.972 209.132 533.417 208.994 532.951 208.719C532.488 208.44 532.13 208.05 531.877 207.547C531.627 207.041 531.502 206.449 531.502 205.77C531.502 205.099 531.627 204.509 531.877 203.997C532.13 203.486 532.482 203.087 532.934 202.8C533.388 202.513 533.92 202.369 534.528 202.369C534.897 202.369 535.255 202.43 535.601 202.553C535.948 202.675 536.259 202.866 536.535 203.128C536.81 203.389 537.028 203.729 537.187 204.146C537.346 204.561 537.425 205.065 537.425 205.659V206.111H532.222V205.156H536.177C536.177 204.821 536.108 204.524 535.972 204.266C535.836 204.004 535.644 203.798 535.397 203.648C535.153 203.497 534.866 203.422 534.536 203.422C534.178 203.422 533.866 203.51 533.599 203.686C533.334 203.859 533.13 204.087 532.985 204.368C532.843 204.646 532.772 204.949 532.772 205.276V206.021C532.772 206.459 532.849 206.831 533.002 207.138C533.158 207.445 533.376 207.679 533.654 207.841C533.932 208 534.258 208.08 534.63 208.08C534.871 208.08 535.091 208.045 535.29 207.977C535.489 207.906 535.661 207.801 535.806 207.662C535.951 207.523 536.062 207.351 536.138 207.146L537.344 207.364C537.248 207.719 537.074 208.03 536.824 208.297C536.577 208.561 536.266 208.767 535.891 208.915C535.519 209.06 535.094 209.132 534.617 209.132ZM538.839 211.455V202.455H540.083V203.516H540.19C540.264 203.379 540.37 203.222 540.509 203.043C540.649 202.864 540.842 202.707 541.089 202.574C541.336 202.438 541.663 202.369 542.069 202.369C542.597 202.369 543.069 202.503 543.484 202.77C543.899 203.037 544.224 203.422 544.46 203.925C544.698 204.428 544.818 205.033 544.818 205.74C544.818 206.447 544.7 207.054 544.464 207.56C544.228 208.062 543.904 208.45 543.492 208.723C543.08 208.993 542.61 209.128 542.082 209.128C541.684 209.128 541.359 209.061 541.106 208.928C540.856 208.794 540.66 208.638 540.518 208.459C540.376 208.28 540.267 208.121 540.19 207.982H540.113V211.455H538.839ZM540.088 205.727C540.088 206.187 540.154 206.591 540.288 206.938C540.421 207.284 540.615 207.555 540.867 207.751C541.12 207.945 541.43 208.041 541.796 208.041C542.177 208.041 542.495 207.94 542.751 207.739C543.007 207.534 543.2 207.257 543.33 206.908C543.464 206.558 543.531 206.165 543.531 205.727C543.531 205.295 543.465 204.908 543.335 204.564C543.207 204.22 543.014 203.949 542.755 203.75C542.499 203.551 542.18 203.452 541.796 203.452C541.427 203.452 541.115 203.547 540.859 203.737C540.606 203.928 540.414 204.193 540.284 204.534C540.153 204.875 540.088 205.273 540.088 205.727ZM550.92 209V210.082H545.376V209H550.92ZM556.67 204.053L555.515 204.257C555.466 204.109 555.39 203.969 555.285 203.835C555.182 203.702 555.043 203.592 554.867 203.507C554.691 203.422 554.471 203.379 554.206 203.379C553.846 203.379 553.545 203.46 553.303 203.622C553.062 203.781 552.941 203.987 552.941 204.24C552.941 204.459 553.022 204.635 553.184 204.768C553.346 204.902 553.607 205.011 553.968 205.097L555.008 205.335C555.61 205.474 556.059 205.689 556.354 205.979C556.65 206.268 556.797 206.645 556.797 207.108C556.797 207.5 556.684 207.849 556.456 208.156C556.232 208.46 555.918 208.699 555.515 208.872C555.114 209.045 554.65 209.132 554.121 209.132C553.388 209.132 552.79 208.976 552.327 208.663C551.864 208.348 551.58 207.901 551.475 207.321L552.706 207.134C552.783 207.455 552.941 207.697 553.18 207.862C553.418 208.024 553.729 208.105 554.113 208.105C554.53 208.105 554.864 208.018 555.114 207.845C555.364 207.669 555.489 207.455 555.489 207.202C555.489 206.997 555.412 206.825 555.259 206.686C555.108 206.547 554.877 206.442 554.564 206.371L553.456 206.128C552.846 205.989 552.394 205.767 552.101 205.463C551.812 205.159 551.667 204.774 551.667 204.308C551.667 203.922 551.775 203.584 551.991 203.294C552.206 203.004 552.505 202.778 552.885 202.616C553.266 202.452 553.702 202.369 554.194 202.369C554.901 202.369 555.458 202.523 555.864 202.83C556.27 203.134 556.539 203.541 556.67 204.053ZM561.019 209.132C560.374 209.132 559.819 208.994 559.353 208.719C558.89 208.44 558.532 208.05 558.279 207.547C558.029 207.041 557.904 206.449 557.904 205.77C557.904 205.099 558.029 204.509 558.279 203.997C558.532 203.486 558.884 203.087 559.336 202.8C559.791 202.513 560.322 202.369 560.93 202.369C561.299 202.369 561.657 202.43 562.004 202.553C562.35 202.675 562.661 202.866 562.937 203.128C563.213 203.389 563.43 203.729 563.589 204.146C563.748 204.561 563.828 205.065 563.828 205.659V206.111H558.624V205.156H562.579C562.579 204.821 562.511 204.524 562.374 204.266C562.238 204.004 562.046 203.798 561.799 203.648C561.555 203.497 561.268 203.422 560.938 203.422C560.58 203.422 560.268 203.51 560.001 203.686C559.737 203.859 559.532 204.087 559.387 204.368C559.245 204.646 559.174 204.949 559.174 205.276V206.021C559.174 206.459 559.251 206.831 559.404 207.138C559.561 207.445 559.778 207.679 560.056 207.841C560.335 208 560.66 208.08 561.032 208.08C561.274 208.08 561.494 208.045 561.693 207.977C561.892 207.906 562.063 207.801 562.208 207.662C562.353 207.523 562.464 207.351 562.541 207.146L563.747 207.364C563.65 207.719 563.477 208.03 563.227 208.297C562.98 208.561 562.669 208.767 562.294 208.915C561.921 209.06 561.497 209.132 561.019 209.132ZM567.146 209.145C566.731 209.145 566.356 209.068 566.021 208.915C565.686 208.759 565.42 208.533 565.224 208.237C565.031 207.942 564.934 207.58 564.934 207.151C564.934 206.781 565.006 206.477 565.148 206.239C565.29 206 565.481 205.811 565.723 205.672C565.964 205.533 566.234 205.428 566.532 205.357C566.831 205.286 567.135 205.232 567.444 205.195C567.836 205.149 568.155 205.112 568.399 205.084C568.643 205.053 568.821 205.003 568.932 204.935C569.042 204.866 569.098 204.756 569.098 204.602V204.572C569.098 204.2 568.993 203.912 568.782 203.707C568.575 203.503 568.265 203.401 567.854 203.401C567.425 203.401 567.086 203.496 566.839 203.686C566.595 203.874 566.426 204.082 566.332 204.312L565.135 204.04C565.277 203.642 565.484 203.321 565.757 203.077C566.032 202.83 566.349 202.651 566.707 202.54C567.065 202.426 567.442 202.369 567.836 202.369C568.098 202.369 568.375 202.401 568.667 202.463C568.963 202.523 569.238 202.634 569.494 202.795C569.753 202.957 569.964 203.189 570.129 203.49C570.294 203.788 570.376 204.176 570.376 204.653V209H569.132V208.105H569.081C568.998 208.27 568.875 208.432 568.71 208.591C568.545 208.75 568.334 208.882 568.075 208.987C567.817 209.092 567.507 209.145 567.146 209.145ZM567.423 208.122C567.775 208.122 568.077 208.053 568.327 207.913C568.579 207.774 568.771 207.592 568.902 207.368C569.035 207.141 569.102 206.898 569.102 206.639V205.795C569.057 205.841 568.969 205.884 568.838 205.923C568.71 205.96 568.564 205.993 568.399 206.021C568.234 206.047 568.074 206.071 567.917 206.094C567.761 206.114 567.631 206.131 567.525 206.145C567.278 206.176 567.052 206.229 566.848 206.303C566.646 206.376 566.484 206.483 566.362 206.622C566.243 206.759 566.183 206.94 566.183 207.168C566.183 207.483 566.3 207.722 566.532 207.884C566.765 208.043 567.062 208.122 567.423 208.122ZM572.073 209V202.455H573.305V203.494H573.373C573.492 203.142 573.703 202.865 574.004 202.663C574.308 202.459 574.651 202.357 575.035 202.357C575.115 202.357 575.208 202.359 575.316 202.365C575.427 202.371 575.514 202.378 575.576 202.386V203.605C575.525 203.591 575.434 203.575 575.303 203.558C575.173 203.538 575.042 203.528 574.911 203.528C574.61 203.528 574.342 203.592 574.106 203.72C573.873 203.845 573.688 204.02 573.552 204.244C573.416 204.466 573.347 204.719 573.347 205.003V209H572.073ZM579.202 209.132C578.568 209.132 578.023 208.989 577.565 208.702C577.111 208.412 576.761 208.013 576.517 207.504C576.273 206.996 576.15 206.413 576.15 205.757C576.15 205.092 576.275 204.506 576.525 203.997C576.775 203.486 577.128 203.087 577.582 202.8C578.037 202.513 578.572 202.369 579.189 202.369C579.686 202.369 580.129 202.462 580.518 202.646C580.907 202.828 581.221 203.084 581.46 203.413C581.702 203.743 581.845 204.128 581.89 204.568H580.65C580.582 204.261 580.426 203.997 580.182 203.776C579.94 203.554 579.616 203.443 579.21 203.443C578.855 203.443 578.544 203.537 578.277 203.724C578.013 203.909 577.807 204.173 577.659 204.517C577.511 204.858 577.437 205.261 577.437 205.727C577.437 206.205 577.51 206.616 577.655 206.963C577.8 207.31 578.004 207.578 578.268 207.768C578.535 207.959 578.849 208.054 579.21 208.054C579.452 208.054 579.67 208.01 579.866 207.922C580.065 207.831 580.231 207.702 580.365 207.534C580.501 207.366 580.596 207.165 580.65 206.929H581.89C581.845 207.352 581.707 207.73 581.477 208.062C581.247 208.395 580.939 208.656 580.552 208.847C580.169 209.037 579.719 209.132 579.202 209.132ZM584.527 205.114V209H583.253V200.273H584.51V203.52H584.591C584.744 203.168 584.979 202.888 585.294 202.68C585.61 202.473 586.021 202.369 586.53 202.369C586.979 202.369 587.371 202.462 587.706 202.646C588.044 202.831 588.306 203.107 588.49 203.473C588.678 203.837 588.771 204.291 588.771 204.837V209H587.497V204.99C587.497 204.51 587.374 204.138 587.127 203.874C586.879 203.607 586.536 203.473 586.095 203.473C585.794 203.473 585.524 203.537 585.286 203.665C585.05 203.793 584.864 203.98 584.727 204.227C584.594 204.472 584.527 204.767 584.527 205.114Z" fill="#2258F4"/>
<rect x="670" y="180" width="6" height="6" rx="3" fill="#2258F4"/>
<rect x="623.5" y="190.5" width="99" height="28" rx="14" fill="#EAF1FF"/>
<rect x="623.5" y="190.5" width="99" height="28" rx="14" stroke="#CBD9FF"/>
<path d="M638.947 204.053L637.792 204.257C637.744 204.109 637.667 203.969 637.562 203.835C637.46 203.702 637.32 203.592 637.144 203.507C636.968 203.422 636.748 203.379 636.484 203.379C636.123 203.379 635.822 203.46 635.58 203.622C635.339 203.781 635.218 203.987 635.218 204.24C635.218 204.459 635.299 204.635 635.461 204.768C635.623 204.902 635.884 205.011 636.245 205.097L637.285 205.335C637.887 205.474 638.336 205.689 638.632 205.979C638.927 206.268 639.075 206.645 639.075 207.108C639.075 207.5 638.961 207.849 638.734 208.156C638.509 208.46 638.195 208.699 637.792 208.872C637.392 209.045 636.927 209.132 636.399 209.132C635.666 209.132 635.068 208.976 634.605 208.663C634.142 208.348 633.857 207.901 633.752 207.321L634.984 207.134C635.061 207.455 635.218 207.697 635.457 207.862C635.695 208.024 636.007 208.105 636.39 208.105C636.808 208.105 637.142 208.018 637.392 207.845C637.642 207.669 637.767 207.455 637.767 207.202C637.767 206.997 637.69 206.825 637.536 206.686C637.386 206.547 637.154 206.442 636.842 206.371L635.734 206.128C635.123 205.989 634.671 205.767 634.379 205.463C634.089 205.159 633.944 204.774 633.944 204.308C633.944 203.922 634.052 203.584 634.268 203.294C634.484 203.004 634.782 202.778 635.163 202.616C635.544 202.452 635.98 202.369 636.471 202.369C637.178 202.369 637.735 202.523 638.142 202.83C638.548 203.134 638.816 203.541 638.947 204.053ZM644.622 206.286V202.455H645.9V209H644.648V207.866H644.579C644.429 208.216 644.187 208.507 643.855 208.74C643.525 208.97 643.115 209.085 642.623 209.085C642.203 209.085 641.831 208.993 641.507 208.808C641.186 208.621 640.933 208.344 640.748 207.977C640.567 207.611 640.476 207.158 640.476 206.618V202.455H641.75V206.464C641.75 206.911 641.873 207.266 642.121 207.53C642.368 207.794 642.689 207.926 643.084 207.926C643.322 207.926 643.559 207.866 643.795 207.747C644.034 207.628 644.231 207.447 644.388 207.206C644.547 206.964 644.625 206.658 644.622 206.286ZM647.612 209V202.455H648.835V203.52H648.916C649.053 203.159 649.276 202.878 649.585 202.676C649.895 202.472 650.266 202.369 650.698 202.369C651.135 202.369 651.502 202.472 651.797 202.676C652.095 202.881 652.316 203.162 652.458 203.52H652.526C652.682 203.17 652.931 202.892 653.271 202.685C653.612 202.474 654.019 202.369 654.49 202.369C655.084 202.369 655.568 202.555 655.943 202.928C656.321 203.3 656.51 203.861 656.51 204.611V209H655.236V204.73C655.236 204.287 655.115 203.966 654.874 203.767C654.632 203.568 654.344 203.469 654.009 203.469C653.594 203.469 653.271 203.597 653.041 203.852C652.811 204.105 652.696 204.43 652.696 204.828V209H651.426V204.649C651.426 204.294 651.316 204.009 651.094 203.793C650.872 203.577 650.584 203.469 650.229 203.469C649.987 203.469 649.764 203.533 649.56 203.661C649.358 203.786 649.195 203.96 649.07 204.185C648.948 204.409 648.887 204.669 648.887 204.964V209H647.612ZM658.218 209V202.455H659.441V203.52H659.522C659.658 203.159 659.881 202.878 660.191 202.676C660.501 202.472 660.871 202.369 661.303 202.369C661.741 202.369 662.107 202.472 662.403 202.676C662.701 202.881 662.921 203.162 663.063 203.52H663.131C663.287 203.17 663.536 202.892 663.877 202.685C664.218 202.474 664.624 202.369 665.096 202.369C665.689 202.369 666.174 202.555 666.549 202.928C666.927 203.3 667.116 203.861 667.116 204.611V209H665.841V204.73C665.841 204.287 665.721 203.966 665.479 203.767C665.238 203.568 664.949 203.469 664.614 203.469C664.199 203.469 663.877 203.597 663.647 203.852C663.417 204.105 663.302 204.43 663.302 204.828V209H662.032V204.649C662.032 204.294 661.921 204.009 661.699 203.793C661.478 203.577 661.189 203.469 660.834 203.469C660.593 203.469 660.37 203.533 660.165 203.661C659.964 203.786 659.8 203.96 659.675 204.185C659.553 204.409 659.492 204.669 659.492 204.964V209H658.218ZM670.728 209.145C670.313 209.145 669.938 209.068 669.603 208.915C669.268 208.759 669.002 208.533 668.806 208.237C668.613 207.942 668.517 207.58 668.517 207.151C668.517 206.781 668.588 206.477 668.73 206.239C668.872 206 669.063 205.811 669.305 205.672C669.546 205.533 669.816 205.428 670.115 205.357C670.413 205.286 670.717 205.232 671.026 205.195C671.419 205.149 671.737 205.112 671.981 205.084C672.225 205.053 672.403 205.003 672.514 204.935C672.624 204.866 672.68 204.756 672.68 204.602V204.572C672.68 204.2 672.575 203.912 672.365 203.707C672.157 203.503 671.847 203.401 671.436 203.401C671.007 203.401 670.669 203.496 670.421 203.686C670.177 203.874 670.008 204.082 669.914 204.312L668.717 204.04C668.859 203.642 669.066 203.321 669.339 203.077C669.615 202.83 669.931 202.651 670.289 202.54C670.647 202.426 671.024 202.369 671.419 202.369C671.68 202.369 671.957 202.401 672.249 202.463C672.545 202.523 672.82 202.634 673.076 202.795C673.335 202.957 673.546 203.189 673.711 203.49C673.876 203.788 673.958 204.176 673.958 204.653V209H672.714V208.105H672.663C672.58 208.27 672.457 208.432 672.292 208.591C672.127 208.75 671.916 208.882 671.657 208.987C671.399 209.092 671.089 209.145 670.728 209.145ZM671.005 208.122C671.357 208.122 671.659 208.053 671.909 207.913C672.161 207.774 672.353 207.592 672.484 207.368C672.617 207.141 672.684 206.898 672.684 206.639V205.795C672.639 205.841 672.551 205.884 672.42 205.923C672.292 205.96 672.146 205.993 671.981 206.021C671.816 206.047 671.656 206.071 671.499 206.094C671.343 206.114 671.213 206.131 671.107 206.145C670.86 206.176 670.634 206.229 670.43 206.303C670.228 206.376 670.066 206.483 669.944 206.622C669.825 206.759 669.765 206.94 669.765 207.168C669.765 207.483 669.882 207.722 670.115 207.884C670.347 208.043 670.644 208.122 671.005 208.122ZM675.655 209V202.455H676.887V203.494H676.955C677.074 203.142 677.285 202.865 677.586 202.663C677.89 202.459 678.233 202.357 678.617 202.357C678.697 202.357 678.79 202.359 678.898 202.365C679.009 202.371 679.096 202.378 679.158 202.386V203.605C679.107 203.591 679.016 203.575 678.885 203.558C678.755 203.538 678.624 203.528 678.493 203.528C678.192 203.528 677.924 203.592 677.688 203.72C677.455 203.845 677.27 204.02 677.134 204.244C676.998 204.466 676.93 204.719 676.93 205.003V209H675.655ZM681.265 211.455C681.075 211.455 680.902 211.439 680.746 211.408C680.589 211.379 680.473 211.348 680.396 211.314L680.703 210.27C680.936 210.332 681.143 210.359 681.325 210.351C681.507 210.342 681.667 210.274 681.807 210.146C681.949 210.018 682.074 209.81 682.182 209.52L682.339 209.085L679.944 202.455H681.308L682.966 207.534H683.034L684.692 202.455H686.059L683.362 209.874C683.237 210.214 683.078 210.503 682.885 210.739C682.692 210.977 682.461 211.156 682.194 211.276C681.927 211.395 681.618 211.455 681.265 211.455ZM690.982 209V210.082H685.438V209H690.982ZM694.883 202.455V203.477H691.307V202.455H694.883ZM692.266 200.886H693.54V207.078C693.54 207.325 693.577 207.511 693.651 207.636C693.725 207.759 693.82 207.842 693.937 207.888C694.056 207.93 694.185 207.952 694.324 207.952C694.427 207.952 694.516 207.945 694.593 207.93C694.67 207.916 694.729 207.905 694.772 207.896L695.002 208.949C694.928 208.977 694.823 209.006 694.687 209.034C694.55 209.065 694.38 209.082 694.175 209.085C693.84 209.091 693.528 209.031 693.238 208.906C692.948 208.781 692.714 208.588 692.535 208.327C692.356 208.065 692.266 207.737 692.266 207.342V200.886ZM698.979 209.132C698.365 209.132 697.83 208.991 697.372 208.71C696.915 208.429 696.56 208.036 696.307 207.53C696.054 207.024 695.928 206.433 695.928 205.757C695.928 205.078 696.054 204.484 696.307 203.976C696.56 203.467 696.915 203.072 697.372 202.791C697.83 202.51 698.365 202.369 698.979 202.369C699.593 202.369 700.128 202.51 700.585 202.791C701.043 203.072 701.398 203.467 701.651 203.976C701.904 204.484 702.03 205.078 702.03 205.757C702.03 206.433 701.904 207.024 701.651 207.53C701.398 208.036 701.043 208.429 700.585 208.71C700.128 208.991 699.593 209.132 698.979 209.132ZM698.983 208.062C699.381 208.062 699.71 207.957 699.972 207.747C700.233 207.537 700.426 207.257 700.551 206.908C700.679 206.558 700.743 206.173 700.743 205.753C700.743 205.335 700.679 204.952 700.551 204.602C700.426 204.25 700.233 203.967 699.972 203.754C699.71 203.541 699.381 203.435 698.983 203.435C698.583 203.435 698.25 203.541 697.986 203.754C697.725 203.967 697.53 204.25 697.402 204.602C697.277 204.952 697.215 205.335 697.215 205.753C697.215 206.173 697.277 206.558 697.402 206.908C697.53 207.257 697.725 207.537 697.986 207.747C698.25 207.957 698.583 208.062 698.983 208.062ZM706.209 209.132C705.596 209.132 705.06 208.991 704.603 208.71C704.145 208.429 703.79 208.036 703.537 207.53C703.285 207.024 703.158 206.433 703.158 205.757C703.158 205.078 703.285 204.484 703.537 203.976C703.79 203.467 704.145 203.072 704.603 202.791C705.06 202.51 705.596 202.369 706.209 202.369C706.823 202.369 707.358 202.51 707.816 202.791C708.273 203.072 708.628 203.467 708.881 203.976C709.134 204.484 709.26 205.078 709.26 205.757C709.26 206.433 709.134 207.024 708.881 207.53C708.628 208.036 708.273 208.429 707.816 208.71C707.358 208.991 706.823 209.132 706.209 209.132ZM706.214 208.062C706.611 208.062 706.941 207.957 707.202 207.747C707.464 207.537 707.657 207.257 707.782 206.908C707.91 206.558 707.974 206.173 707.974 205.753C707.974 205.335 707.91 204.952 707.782 204.602C707.657 204.25 707.464 203.967 707.202 203.754C706.941 203.541 706.611 203.435 706.214 203.435C705.813 203.435 705.481 203.541 705.216 203.754C704.955 203.967 704.76 204.25 704.633 204.602C704.508 204.952 704.445 205.335 704.445 205.753C704.445 206.173 704.508 206.558 704.633 206.908C704.76 207.257 704.955 207.537 705.216 207.747C705.481 207.957 705.813 208.062 706.214 208.062ZM711.957 200.273V209H710.683V200.273H711.957Z" fill="#2258F4"/>
<defs>
<clipPath id="clip0_49_3">
<rect width="14" height="14" fill="white" transform="translate(639 113)"/>
</clipPath>
</defs>
</svg>
